<svg id="Ebene_1" data-name="Ebene 1" xmlns="http://www.w3.org/2000/svg" viewBox="0 0 498.56 287.01"><defs><style>.cls-1{fill:#353535;}</style></defs><path class="cls-1" d="M51.54,317.27l87-134.33h56.41L108,317.27Zm1.68-134.33v73.88l47.69-73.88Zm140,134.33V243.39l-47.68,73.88Z" transform="translate(-47.81 -30.26)"/><path class="cls-1" d="M272.51,182.94l50.88,102.93v31.4H272.85v-31.4L221.8,182.94Zm101.92,0L341,250.27l-33.25-67.33Z" transform="translate(-47.81 -30.26)"/><path class="cls-1" d="M403,182.94H459.4l87,134.33H490Zm1.68,60.45v73.88h47.68Zm139.53,13.43V182.94H496.5Z" transform="translate(-47.81 -30.26)"/><path class="cls-1" d="M95.16,30.26V166.6a47.29,47.29,0,0,1-47.35-47.35V77.61A47.29,47.29,0,0,1,95.16,30.26Zm80.26,47.35H128.07V30.26A47.3,47.3,0,0,1,175.42,77.61Zm0,41.64a47.29,47.29,0,0,1-47.35,47.35V119.25Z" transform="translate(-47.81 -30.26)"/><path class="cls-1" d="M227.47,165.59H177.1l23.5-87.81ZM270.79,31.27h-49.2l40.13,134.32h49.37Zm83.62,0h-49.2l40.13,134.32H394.7Z" transform="translate(-47.81 -30.26)"/><path class="cls-1" d="M399.75,31.27h56.41l87,134.32H486.72Zm1.67,60.44v73.88h47.69ZM541,105.15V31.27H493.27Z" transform="translate(-47.81 -30.26)"/></svg>