<svg id="Ebene_1" data-name="Ebene 1" xmlns="http://www.w3.org/2000/svg" viewBox="0 0 549.71 317.9"><defs><style>.cls-1{fill:#353535;}</style></defs><path class="cls-1" d="M-1.87,317.45l96.2-148.58h62.4L60.53,317.45ZM0,168.87v81.72l52.74-81.72ZM154.87,317.45V235.73l-52.74,81.72Z"/><path class="cls-1" d="M244.53,168.87,300.8,282.72v34.73H244.91V282.72L188.45,168.87Zm112.73,0-36.95,74.48-36.78-74.48Z"/><path class="cls-1" d="M393.84,168.87h62.4l96.2,148.58H490Zm1.85,66.86v81.72h52.75ZM550,250.59V168.87H497.28Z"/><path class="cls-1" d="M52.37,0V150.8A52.31,52.31,0,0,1,0,98.43V52.37A52.31,52.31,0,0,1,52.37,0Zm88.77,52.37H88.77V0A52.31,52.31,0,0,1,141.14,52.37Zm0,46.06A52.31,52.31,0,0,1,88.77,150.8V98.43Z"/><path class="cls-1" d="M198.72,148.69H143l26-97.13ZM246.63.11H192.21L236.6,148.69h54.6Zm92.48,0H284.7l44.39,148.58h54.59Z"/><path class="cls-1" d="M393.26.11h62.4l96.2,148.58h-62.4ZM395.12,67v81.72h52.74ZM549.45,81.83V.11H496.7Z"/></svg>